<?xml version="1.0" encoding="utf-8"?>
<!-- Svg Vector Icons : http://www.onlinewebfonts.com/icon -->
<!DOCTYPE svg PUBLIC "-//W3C//DTD SVG 1.1//EN" "http://www.w3.org/Graphics/SVG/1.1/DTD/svg11.dtd">
<svg version="1.1" xmlns="http://www.w3.org/2000/svg" xmlns:xlink="http://www.w3.org/1999/xlink" x="0px" y="0px" viewBox="0 0 1000 1000" enable-background="new 0 0 1000 1000" xml:space="preserve">
<metadata> Svg Vector Icons : http://www.onlinewebfonts.com/icon </metadata>
<g><path d="M487.8,254.9c-20.3,0-36.8,18.6-36.8,41.5l-0.1,260.1c0,22.9,16.5,41.4,36.8,41.4c20.3,0,36.8-18.6,36.8-41.4l0.1-260.1C524.6,273.4,508.1,254.9,487.8,254.9z M500,10C229.4,10,10,229.4,10,500c0,270.6,219.4,490,490,490c270.6,0,490-219.4,490-490C990,229.4,770.6,10,500,10z M500,941C256.4,941,59,743.6,59,500C59,256.5,256.4,59,500,59s441,197.4,441,441C941,743.6,743.6,941,500,941z M487.8,671.7c-20.2,0-36.6,16.2-36.6,36.2L451,709c0,20,16.4,36.2,36.6,36.2c20.2,0,36.6-16.2,36.6-36.2l0.1-1.1C524.5,687.9,508.1,671.7,487.8,671.7z"/></g>
</svg>